<svg width="32" height="30" viewBox="0 0 32 30" fill="none" xmlns="http://www.w3.org/2000/svg">
<path d="M22.2344 0.692322C20.5076 0.891869 18.9195 1.73514 17.787 3.05387C17.2345 3.66441 16.8187 4.38597 16.5677 5.17022C16.3166 5.95447 16.236 6.78332 16.3312 7.60125C17.1994 7.58397 18.0528 7.37313 18.8291 6.9841C19.6054 6.59508 20.2851 6.03768 20.8186 5.35256C21.3552 4.71054 21.7572 3.96705 22.0004 3.16641C22.2436 2.36578 22.3232 1.52437 22.2344 0.692322Z" fill="black"/>
<path d="M28.4032 10.3257C27.7406 9.46106 26.8966 8.75218 25.9305 8.24891C24.9644 7.74563 23.8998 7.46018 22.8115 7.41266C20.1871 7.41266 19.0756 8.64559 17.2527 8.64559C15.3726 8.64559 13.9439 7.41695 11.6738 7.41695C10.4376 7.47899 9.23515 7.84133 8.17048 8.47261C7.10581 9.1039 6.21101 9.9851 5.56351 11.04C3.44626 14.2587 3.80914 20.3119 7.23931 25.4693C8.46652 27.3137 10.1066 29.3881 12.2496 29.4067C14.1582 29.4252 14.6954 28.2066 17.2798 28.1937C19.8642 28.1809 20.3557 29.4224 22.2586 29.4024C24.4016 29.3866 26.1331 27.088 27.3603 25.2436C28.101 24.1466 28.7339 22.9807 29.2504 21.762C28.1116 21.3484 27.1166 20.6145 26.3851 19.6487C25.6536 18.6828 25.2168 17.5262 25.1273 16.3179C25.0378 15.1096 25.2994 13.9012 25.8806 12.8381C26.4618 11.775 27.3378 10.9025 28.4032 10.3257Z" fill="black"/>
</svg>
