<svg width="33" height="30" viewBox="0 0 33 30" fill="none" xmlns="http://www.w3.org/2000/svg">
<path d="M25.9021 12.436C25.7397 12.4362 25.5816 12.3836 25.4517 12.2862C25.3217 12.1887 25.227 12.0517 25.1817 11.8958L22.954 3.99349C22.8201 3.49188 22.527 3.04728 22.1188 2.72645C21.7106 2.40561 21.2094 2.22587 20.6903 2.21421H9.06201C8.54187 2.22392 8.03901 2.40259 7.62935 2.72324C7.21969 3.04388 6.92546 3.48911 6.7911 3.99169L4.57061 11.8886C4.50966 12.0711 4.38079 12.2232 4.21073 12.3133C4.04066 12.4034 3.84244 12.4246 3.65717 12.3725C3.4719 12.3204 3.3138 12.199 3.21563 12.0334C3.11746 11.8679 3.08676 11.6709 3.12991 11.4834L5.3504 3.58649C5.57424 2.77062 6.05739 2.04969 6.72693 1.53252C7.39647 1.01534 8.21606 0.729972 9.06201 0.719482H20.6903C21.5352 0.731926 22.3532 1.01837 23.0212 1.53574C23.6893 2.0531 24.1713 2.7734 24.3947 3.58829L26.6152 11.4852C26.6684 11.6762 26.6437 11.8805 26.5464 12.0534C26.4492 12.2262 26.2874 12.3535 26.0966 12.4072C26.0334 12.4258 25.9679 12.4355 25.9021 12.436Z" fill="white"/>
<path d="M25.902 12.6161C25.6985 12.6172 25.5003 12.5515 25.3377 12.4292C25.1751 12.3069 25.057 12.1348 25.0015 11.939L22.7865 4.04215C22.6634 3.57712 22.3922 3.1648 22.014 2.86751C21.6359 2.57023 21.1712 2.40413 20.6902 2.39434H9.06193C8.58099 2.40393 8.11622 2.5697 7.73776 2.86662C7.3593 3.16354 7.08768 3.57551 6.96391 4.04034L4.74342 11.939C4.67063 12.169 4.51128 12.3616 4.29905 12.4762C4.08682 12.5909 3.83834 12.6185 3.60612 12.5532C3.37391 12.488 3.17617 12.335 3.05469 12.1266C2.93321 11.9182 2.89751 11.6708 2.95514 11.4366L5.17743 3.5397C5.411 2.68546 5.91648 1.93054 6.61736 1.3892C7.31824 0.84786 8.17639 0.549554 9.06193 0.539429H20.6902C21.5756 0.550142 22.4335 0.848668 23.1342 1.38992C23.835 1.93117 24.3406 2.68575 24.5747 3.5397L26.7952 11.4366C26.8289 11.5536 26.8389 11.6761 26.8246 11.797C26.8104 11.9179 26.7722 12.0347 26.7124 12.1407C26.631 12.2842 26.5133 12.4037 26.371 12.4872C26.2287 12.5706 26.0669 12.6151 25.902 12.6161ZM9.06193 2.03416H20.6902C21.2498 2.04409 21.7909 2.23592 22.2318 2.58064C22.6727 2.92536 22.9894 3.40424 23.134 3.9449L25.3545 11.8418C25.3973 11.9859 25.4946 12.1076 25.6258 12.1809C25.757 12.2543 25.9117 12.2734 26.0569 12.2344C26.2014 12.1928 26.3236 12.096 26.3972 11.9648C26.4707 11.8336 26.4895 11.6788 26.4494 11.5338L24.2272 3.63695C24.0148 2.85848 23.5549 2.1703 22.9167 1.67644C22.2786 1.18258 21.4971 0.909893 20.6902 0.899605H9.06193C8.25494 0.910091 7.47326 1.18282 6.8349 1.67662C6.19653 2.17042 5.73613 2.85848 5.5232 3.63695L3.30271 11.5338C3.28196 11.6054 3.2759 11.6804 3.28487 11.7544C3.29385 11.8283 3.31768 11.8997 3.35494 11.9642C3.39089 12.0296 3.43951 12.0871 3.49795 12.1335C3.55639 12.1799 3.62348 12.2142 3.6953 12.2344C3.84025 12.2749 3.99534 12.2563 4.12663 12.1827C4.25792 12.1091 4.35472 11.9865 4.39585 11.8418L6.61813 3.9449C6.76275 3.40424 7.07944 2.92536 7.52034 2.58064C7.96123 2.23592 8.50236 2.04409 9.06193 2.03416Z" fill="#093F68"/>
<path d="M24.5568 28.6871H5.19549C4.82323 28.6871 4.46374 28.5514 4.18431 28.3054C3.90488 28.0595 3.72465 27.7201 3.67735 27.3509L1.87646 13.1671H27.8686L26.0677 27.3509C26.0213 27.7192 25.8423 28.058 25.5642 28.3039C25.2862 28.5499 24.928 28.6861 24.5568 28.6871Z" fill="#68E1FD"/>
<path d="M24.557 28.8673H5.19387C4.77826 28.8667 4.37706 28.7149 4.06521 28.4402C3.75336 28.1654 3.55218 27.7866 3.49924 27.3744L1.70376 13.1996C1.70092 13.1744 1.70347 13.1488 1.71123 13.1246C1.71899 13.1004 1.73179 13.0781 1.74878 13.0592C1.76566 13.0399 1.78643 13.0245 1.80972 13.014C1.83301 13.0034 1.85828 12.998 1.88385 12.9979H27.8688C27.8943 12.998 27.9196 13.0034 27.9429 13.014C27.9662 13.0245 27.987 13.0399 28.0038 13.0592C28.0205 13.0782 28.033 13.1006 28.0404 13.1248C28.0479 13.149 28.0501 13.1745 28.0471 13.1996L26.2462 27.3852C26.1913 27.7947 25.99 28.1704 25.6794 28.4429C25.3689 28.7154 24.9701 28.8662 24.557 28.8673ZM2.08735 13.3545L3.86482 27.3347C3.90599 27.6602 4.06439 27.9596 4.31035 28.1767C4.55632 28.3938 4.87299 28.5138 5.20107 28.5143H24.557C24.8852 28.5139 25.2021 28.3939 25.4484 28.1768C25.6947 27.9597 25.8534 27.6604 25.895 27.3347L27.6635 13.3545H2.08735Z" fill="#093F68"/>
<path d="M28.0614 11.3123H1.69112C0.856646 11.3123 0.180176 11.9887 0.180176 12.8232V12.9547C0.180176 13.7891 0.856646 14.4656 1.69112 14.4656H28.0614C28.8959 14.4656 29.5724 13.7891 29.5724 12.9547V12.8232C29.5724 11.9887 28.8959 11.3123 28.0614 11.3123Z" fill="#68E1FD"/>
<path d="M28.0595 14.6402H1.69103C1.24252 14.6393 0.812682 14.4606 0.495707 14.1432C0.178732 13.8259 0.000475617 13.3959 0 12.9474V12.8195C0.000475617 12.371 0.178732 11.941 0.495707 11.6237C0.812682 11.3064 1.24252 11.1277 1.69103 11.1267H28.0595C28.5084 11.1272 28.9387 11.3057 29.256 11.6231C29.5734 11.9404 29.7519 12.3707 29.7524 12.8195V12.9474C29.7519 13.3962 29.5734 13.8265 29.256 14.1439C28.9387 14.4612 28.5084 14.6398 28.0595 14.6402ZM1.69103 11.4923C1.33805 11.4932 0.999818 11.634 0.750389 11.8838C0.50096 12.1335 0.360651 12.472 0.360176 12.8249V12.9528C0.360651 13.3058 0.50096 13.6442 0.750389 13.894C0.999818 14.1437 1.33805 14.2845 1.69103 14.2855H28.0595C28.4128 14.285 28.7515 14.1444 29.0013 13.8946C29.2512 13.6448 29.3917 13.3061 29.3922 12.9528V12.8249C29.3917 12.4716 29.2512 12.133 29.0013 11.8831C28.7515 11.6333 28.4128 11.4928 28.0595 11.4923H1.69103Z" fill="#093F68"/>
<path d="M7.39094 15.5947H7.38914C6.74464 15.5947 6.22217 16.1172 6.22217 16.7617V25.4203C6.22217 26.0648 6.74464 26.5873 7.38914 26.5873H7.39094C8.03544 26.5873 8.55791 26.0648 8.55791 25.4203V16.7617C8.55791 16.1172 8.03544 15.5947 7.39094 15.5947Z" fill="#093F68"/>
<path d="M7.39085 26.7673C7.03343 26.7673 6.69061 26.6254 6.4377 26.3728C6.18479 26.1203 6.04247 25.7776 6.04199 25.4202V16.7634C6.04199 16.4052 6.18429 16.0616 6.43759 15.8083C6.69089 15.555 7.03444 15.4127 7.39265 15.4127C7.75087 15.4127 8.09442 15.555 8.34772 15.8083C8.60101 16.0616 8.74331 16.4052 8.74331 16.7634V25.4202C8.74308 25.5975 8.7079 25.773 8.63978 25.9367C8.57166 26.1004 8.47194 26.249 8.34633 26.3741C8.22072 26.4992 8.07168 26.5984 7.90773 26.6658C7.74378 26.7333 7.56814 26.7678 7.39085 26.7673ZM7.39085 15.7819C7.26102 15.7819 7.13245 15.8075 7.0125 15.8572C6.89255 15.9068 6.78356 15.9797 6.69175 16.0715C6.59994 16.1633 6.52711 16.2723 6.47743 16.3922C6.42774 16.5122 6.40217 16.6408 6.40217 16.7706V25.4274C6.40217 25.6901 6.50652 25.9421 6.69228 26.1278C6.87803 26.3136 7.12996 26.4179 7.39265 26.4179C7.65535 26.4179 7.90728 26.3136 8.09303 26.1278C8.27878 25.9421 8.38314 25.6901 8.38314 25.4274V16.7634C8.38314 16.6332 8.35745 16.5044 8.30754 16.3842C8.25763 16.264 8.18448 16.1549 8.09229 16.063C8.0001 15.9711 7.89068 15.8984 7.77031 15.8489C7.64994 15.7994 7.52099 15.7742 7.39085 15.7747V15.7819Z" fill="#093F68"/>
<path d="M12.3812 15.5947H12.3794C11.7349 15.5947 11.2124 16.1172 11.2124 16.7617V25.4203C11.2124 26.0648 11.7349 26.5873 12.3794 26.5873H12.3812C13.0257 26.5873 13.5481 26.0648 13.5481 25.4203V16.7617C13.5481 16.1172 13.0257 15.5947 12.3812 15.5947Z" fill="#093F68"/>
<path d="M12.3811 26.7673C12.0237 26.7673 11.6808 26.6254 11.4279 26.3728C11.175 26.1203 11.0327 25.7776 11.0322 25.4202V16.7634C11.0322 16.4052 11.1745 16.0616 11.4278 15.8083C11.6811 15.555 12.0247 15.4127 12.3829 15.4127C12.7411 15.4127 13.0847 15.555 13.3379 15.8083C13.5912 16.0616 13.7335 16.4052 13.7335 16.7634V25.4202C13.7333 25.5975 13.6981 25.773 13.63 25.9367C13.5619 26.1004 13.4622 26.249 13.3366 26.3741C13.211 26.4992 13.0619 26.5984 12.898 26.6658C12.734 26.7333 12.5584 26.7678 12.3811 26.7673ZM12.3811 15.7819C12.2512 15.7819 12.1227 15.8075 12.0027 15.8572C11.8828 15.9068 11.7738 15.9797 11.682 16.0715C11.5902 16.1633 11.5173 16.2723 11.4677 16.3922C11.418 16.5122 11.3924 16.6408 11.3924 16.7706V25.4274C11.3924 25.6901 11.4968 25.9421 11.6825 26.1278C11.8683 26.3136 12.1202 26.4179 12.3829 26.4179C12.6456 26.4179 12.8975 26.3136 13.0833 26.1278C13.269 25.9421 13.3734 25.6901 13.3734 25.4274V16.7634C13.3734 16.6332 13.3477 16.5044 13.2978 16.3842C13.2479 16.264 13.1747 16.1549 13.0825 16.063C12.9903 15.9711 12.8809 15.8984 12.7605 15.8489C12.6402 15.7994 12.5112 15.7742 12.3811 15.7747V15.7819Z" fill="#093F68"/>
<path d="M17.3731 15.5947H17.3713C16.7268 15.5947 16.2043 16.1172 16.2043 16.7617V25.4203C16.2043 26.0648 16.7268 26.5873 17.3713 26.5873H17.3731C18.0176 26.5873 18.5401 26.0648 18.5401 25.4203V16.7617C18.5401 16.1172 18.0176 15.5947 17.3731 15.5947Z" fill="#093F68"/>
<path d="M17.3712 26.7673C17.014 26.7673 16.6713 26.6254 16.4187 26.3727C16.1661 26.1201 16.0242 25.7775 16.0242 25.4202V16.7634C16.0242 16.4052 16.1665 16.0616 16.4198 15.8083C16.6731 15.555 17.0166 15.4127 17.3748 15.4127C17.733 15.4127 18.0766 15.555 18.3299 15.8083C18.5832 16.0616 18.7255 16.4052 18.7255 16.7634V25.4202C18.7253 25.5977 18.69 25.7733 18.6218 25.9371C18.5536 26.1009 18.4537 26.2496 18.3279 26.3748C18.2021 26.4999 18.0528 26.599 17.8887 26.6663C17.7245 26.7337 17.5487 26.768 17.3712 26.7673ZM17.3712 15.7819C17.1093 15.7824 16.8583 15.8868 16.6733 16.0721C16.4883 16.2575 16.3843 16.5087 16.3843 16.7706V25.4274C16.3843 25.6901 16.4887 25.9421 16.6745 26.1278C16.8602 26.3136 17.1121 26.4179 17.3748 26.4179C17.6375 26.4179 17.8895 26.3136 18.0752 26.1278C18.261 25.9421 18.3653 25.6901 18.3653 25.4274V16.7634C18.3653 16.6331 18.3396 16.5041 18.2895 16.3838C18.2395 16.2635 18.1662 16.1542 18.0738 16.0624C17.9814 15.9705 17.8718 15.8978 17.7512 15.8484C17.6307 15.799 17.5015 15.774 17.3712 15.7747V15.7819Z" fill="#093F68"/>
<path d="M22.3634 15.5947H22.3616C21.7171 15.5947 21.1946 16.1172 21.1946 16.7617V25.4203C21.1946 26.0648 21.7171 26.5873 22.3616 26.5873H22.3634C23.0079 26.5873 23.5303 26.0648 23.5303 25.4203V16.7617C23.5303 16.1172 23.0079 15.5947 22.3634 15.5947Z" fill="#093F68"/>
<path d="M22.3615 26.7673C22.0042 26.7673 21.6616 26.6254 21.4089 26.3727C21.1563 26.1201 21.0144 25.7775 21.0144 25.4202V16.7634C21.0144 16.4052 21.1567 16.0616 21.41 15.8083C21.6633 15.555 22.0068 15.4127 22.3651 15.4127C22.7233 15.4127 23.0668 15.555 23.3201 15.8083C23.5734 16.0616 23.7157 16.4052 23.7157 16.7634V25.4202C23.7157 25.5977 23.6806 25.7735 23.6125 25.9374C23.5444 26.1013 23.4445 26.2501 23.3186 26.3753C23.1928 26.5005 23.0434 26.5995 22.8792 26.6668C22.7149 26.7341 22.539 26.7682 22.3615 26.7673ZM22.3615 15.7819C22.0996 15.7824 21.8485 15.8868 21.6635 16.0721C21.4785 16.2575 21.3746 16.5087 21.3746 16.7706V25.4274C21.3746 25.6901 21.4789 25.9421 21.6647 26.1278C21.8504 26.3136 22.1024 26.4179 22.3651 26.4179C22.6278 26.4179 22.8797 26.3136 23.0654 26.1278C23.2512 25.9421 23.3556 25.6901 23.3556 25.4274V16.7634C23.3556 16.6331 23.3298 16.5041 23.2798 16.3838C23.2298 16.2635 23.1564 16.1542 23.0641 16.0624C22.9717 15.9705 22.8621 15.8978 22.7415 15.8484C22.6209 15.799 22.4918 15.774 22.3615 15.7747V15.7819Z" fill="#093F68"/>
<path d="M18.3761 0.18103H11.3761C10.659 0.18103 10.0776 0.76236 10.0776 1.47947V1.48127C10.0776 2.19837 10.659 2.7797 11.3761 2.7797H18.3761C19.0932 2.7797 19.6745 2.19837 19.6745 1.48127V1.47947C19.6745 0.76236 19.0932 0.18103 18.3761 0.18103Z" fill="#68E1FD"/>
<path d="M18.3744 2.95975H11.3762C10.9928 2.94637 10.6295 2.78464 10.363 2.50866C10.0965 2.23267 9.94751 1.86399 9.94751 1.48033C9.94751 1.09666 10.0965 0.727975 10.363 0.451991C10.6295 0.176006 10.9928 0.0142804 11.3762 0.000900503H18.3744C18.5731 -0.00603046 18.771 0.0271051 18.9566 0.0983324C19.1421 0.16956 19.3114 0.27742 19.4544 0.415482C19.5974 0.553543 19.7111 0.718979 19.7887 0.901925C19.8664 1.08487 19.9064 1.28158 19.9064 1.48033C19.9064 1.67907 19.8664 1.87578 19.7887 2.05873C19.7111 2.24167 19.5974 2.40711 19.4544 2.54517C19.3114 2.68323 19.1421 2.79109 18.9566 2.86232C18.771 2.93354 18.5731 2.96668 18.3744 2.95975ZM11.3762 0.361077C11.0871 0.372675 10.8138 0.495667 10.6133 0.704298C10.4129 0.91293 10.301 1.19102 10.301 1.48033C10.301 1.76963 10.4129 2.04772 10.6133 2.25635C10.8138 2.46498 11.0871 2.58798 11.3762 2.59957H18.3744C18.5252 2.60562 18.6756 2.58115 18.8167 2.52763C18.9578 2.47411 19.0866 2.39264 19.1954 2.28811C19.3042 2.18358 19.3907 2.05815 19.4499 1.91934C19.509 1.78053 19.5395 1.63121 19.5395 1.48033C19.5395 1.32945 19.509 1.18012 19.4499 1.04131C19.3907 0.9025 19.3042 0.777069 19.1954 0.672541C19.0866 0.568013 18.9578 0.486542 18.8167 0.43302C18.6756 0.379499 18.5252 0.355028 18.3744 0.361077H11.3762Z" fill="#093F68"/>
<path d="M25.9868 29.8181C29.5295 29.8181 32.4015 26.9462 32.4015 23.4034C32.4015 19.8606 29.5295 16.9886 25.9868 16.9886C22.444 16.9886 19.572 19.8606 19.572 23.4034C19.572 26.9462 22.444 29.8181 25.9868 29.8181Z" fill="white"/>
<path d="M25.9866 30C24.6818 30.0004 23.4063 29.6138 22.3212 28.8892C21.2362 28.1645 20.3904 27.1344 19.8908 25.9291C19.3913 24.7237 19.2604 23.3973 19.5147 22.1176C19.769 20.8378 20.3972 19.6622 21.3197 18.7395C22.2421 17.8168 23.4175 17.1883 24.6972 16.9337C25.9769 16.679 27.3033 16.8095 28.5088 17.3087C29.7143 17.808 30.7447 18.6535 31.4696 19.7383C32.1945 20.8232 32.5814 22.0986 32.5814 23.4034C32.5795 25.152 31.8842 26.8285 30.6479 28.0652C29.4116 29.3018 27.7353 29.9976 25.9866 30ZM25.9866 17.1687C24.753 17.1684 23.547 17.5339 22.5212 18.219C21.4953 18.9042 20.6957 19.8781 20.2234 21.0178C19.7512 22.1574 19.6275 23.4115 19.8681 24.6214C20.1087 25.8313 20.7027 26.9427 21.575 27.815C22.4473 28.6873 23.5587 29.2813 24.7686 29.5219C25.9785 29.7625 27.2326 29.6388 28.3722 29.1666C29.5119 28.6943 30.4859 27.8947 31.171 26.8689C31.8561 25.843 32.2216 24.637 32.2213 23.4034C32.2213 21.7492 31.5646 20.1627 30.3956 18.9923C29.2266 17.8219 27.6408 17.1634 25.9866 17.1615V17.1687Z" fill="#093F68"/>
<path d="M24.2705 26.8214L21.7168 24.0048C21.6226 23.9009 21.5735 23.7638 21.5802 23.6237C21.587 23.4836 21.649 23.3519 21.7528 23.2575L22.4624 22.6128C22.5663 22.5185 22.7034 22.4694 22.8435 22.4761C22.9837 22.4829 23.1154 22.545 23.2098 22.6488L24.7477 24.3416L28.9834 20.4031C29.0862 20.3077 29.2225 20.257 29.3626 20.2621C29.5028 20.2671 29.6351 20.3276 29.7308 20.4301L30.3827 21.1324C30.4301 21.1832 30.467 21.2428 30.4914 21.3079C30.5157 21.373 30.5269 21.4423 30.5244 21.5117C30.5219 21.5812 30.5057 21.6494 30.4768 21.7126C30.4478 21.7758 30.4066 21.8326 30.3557 21.8798L25.0142 26.8466C24.9639 26.8941 24.9046 26.9311 24.8399 26.9555C24.7752 26.9799 24.7063 26.9913 24.6371 26.989C24.568 26.9866 24.5 26.9706 24.437 26.9419C24.3741 26.9131 24.3175 26.8722 24.2705 26.8214Z" fill="#70CC40"/>
<path d="M24.6576 27.1726H24.627C24.5342 27.1693 24.443 27.1474 24.3588 27.1081C24.2747 27.0688 24.1993 27.013 24.1372 26.9439L21.5835 24.1309C21.5208 24.0621 21.4724 23.9815 21.4409 23.8938C21.4094 23.8062 21.3955 23.7132 21.4 23.6202C21.4045 23.5272 21.4274 23.436 21.4672 23.3518C21.507 23.2676 21.5631 23.1921 21.6321 23.1296L22.3417 22.4849C22.4808 22.3585 22.6643 22.2925 22.852 22.3013C23.0397 22.31 23.2163 22.3929 23.343 22.5317L24.7585 24.0895L28.8609 20.277C28.929 20.2136 29.0089 20.1641 29.0961 20.1316C29.1832 20.0991 29.276 20.084 29.369 20.0874C29.462 20.0907 29.5534 20.1124 29.6381 20.1511C29.7227 20.1898 29.7988 20.2449 29.8622 20.3131L30.5159 21.0154C30.5793 21.0836 30.6285 21.1636 30.6609 21.2508C30.6933 21.3381 30.7082 21.4309 30.7047 21.5239C30.7012 21.6169 30.6793 21.7083 30.6405 21.7929C30.6016 21.8774 30.5464 21.9535 30.4781 22.0167L25.1367 26.9835C25.0069 27.1052 24.8356 27.1729 24.6576 27.1726ZM22.8189 22.6614C22.7323 22.6607 22.6486 22.6929 22.5848 22.7514L21.8735 23.3962C21.8062 23.4591 21.7656 23.5455 21.76 23.6375C21.7578 23.6831 21.7647 23.7286 21.7801 23.7716C21.7956 23.8146 21.8193 23.854 21.8501 23.8878L24.4037 26.7062C24.4654 26.7742 24.5515 26.8149 24.6432 26.8196C24.6884 26.8217 24.7335 26.8146 24.7759 26.7988C24.8183 26.783 24.8571 26.7589 24.8899 26.7278L30.2332 21.761C30.3009 21.6979 30.3409 21.6105 30.3443 21.518C30.3476 21.4254 30.3142 21.3354 30.2512 21.2675L29.5992 20.5652C29.5348 20.4999 29.4478 20.4617 29.3561 20.4583C29.2644 20.455 29.1749 20.4867 29.1058 20.5472L24.8701 24.4857C24.8527 24.5019 24.8322 24.5145 24.8099 24.5227C24.7875 24.5309 24.7638 24.5346 24.74 24.5336C24.7162 24.5326 24.6929 24.5269 24.6713 24.5168C24.6498 24.5068 24.6304 24.4925 24.6144 24.4749L23.0765 22.7821C23.0445 22.7449 23.005 22.715 22.9606 22.6942C22.9162 22.6734 22.8679 22.6622 22.8189 22.6614Z" fill="#093F68"/>
</svg>
