<svg width="27" height="26" viewBox="0 0 27 26" fill="none" xmlns="http://www.w3.org/2000/svg">
<path d="M26.4792 3.26706C26.2131 2.96195 25.83 2.7864 25.4259 2.7864H6.17328L5.9016 1.16472C5.79014 0.493193 5.20918 0 4.5279 0H1.3932C0.622761 0 0 0.622761 0 1.3932C0 2.16364 0.622761 2.7864 1.3932 2.7864H3.34786L5.93922 18.3401L6.00191 18.5129L6.07714 18.7232L6.24433 18.9726L6.37668 19.1287L6.64557 19.3098L6.80161 19.4003C6.96322 19.4658 7.13319 19.5048 7.31291 19.5048H22.6395C23.41 19.5048 24.0327 18.8821 24.0327 18.1116C24.0327 17.3412 23.41 16.7184 22.6395 16.7184H8.49435L8.26308 15.3252H24.0327C24.7265 15.3252 25.3145 14.8153 25.412 14.1298L26.8052 4.37744C26.8623 3.9762 26.7425 3.57077 26.4792 3.26706ZM23.8196 5.5728L23.4225 8.35921H18.4599V5.5728H23.8196ZM17.0667 5.5728V8.35921H12.8871V5.5728H17.0667ZM17.0667 9.75241V12.5388H12.8871V9.75241H17.0667ZM11.4939 5.5728V8.35921H7.31431L7.10811 8.401L6.63721 5.5728H11.4939ZM7.33381 9.75241H11.4939V12.5388H7.79775L7.33381 9.75241ZM18.4599 12.5388V9.75241H23.2219L22.8248 12.5388H18.4599Z" fill="#9B9696"/>
<path d="M9.40401 25.0776C10.5582 25.0776 11.4938 24.142 11.4938 22.9878C11.4938 21.8336 10.5582 20.898 9.40401 20.898C8.24985 20.898 7.31421 21.8336 7.31421 22.9878C7.31421 24.142 8.24985 25.0776 9.40401 25.0776Z" fill="#9B9696"/>
<path d="M21.9428 25.0776C23.097 25.0776 24.0326 24.142 24.0326 22.9878C24.0326 21.8336 23.097 20.898 21.9428 20.898C20.7887 20.898 19.853 21.8336 19.853 22.9878C19.853 24.142 20.7887 25.0776 21.9428 25.0776Z" fill="#9B9696"/>
</svg>
