<svg width="35" height="36" viewBox="0 0 35 36" fill="none" xmlns="http://www.w3.org/2000/svg">
<path d="M34.2672 9.84176L28.1917 3.76627C27.5496 3.02536 26.6605 2.58081 25.6232 2.58081H9.42193C8.38466 2.58081 7.44617 3.02536 6.85344 3.76627L0.728558 9.84176C0.382798 10.1875 0.382798 10.7802 0.728558 11.126L5.07525 15.4727C5.42101 15.8185 6.01374 15.8185 6.35949 15.4727L7.34738 14.4848V33.2052C7.34738 33.7979 10.0147 35.5267 17.4238 35.5267C24.8329 35.5267 27.5002 33.7979 27.5002 33.2052V14.3366L28.6363 15.4727C28.982 15.8185 29.5748 15.8185 29.9205 15.4727L34.2672 11.126C34.613 10.8296 34.613 10.2369 34.2672 9.84176Z" fill="#76DFFF"/>
<path d="M14.5096 2.23511H20.3382C21.2273 2.23511 21.9682 2.77844 21.9682 3.46996V4.26027C21.9682 4.95179 18.8069 8.31059 17.9178 8.31059H16.93C16.0409 8.31059 12.8796 4.90239 12.8796 4.26027V3.46996C12.929 2.77844 13.6206 2.23511 14.5096 2.23511Z" fill="#0096D1"/>
<path d="M22.5607 0.703867C19.0043 -0.234622 15.9419 -0.234622 12.3855 0.703867C12.2867 0.753261 12.2373 2.38327 12.4349 3.07479C12.4843 3.17358 12.5831 3.22297 12.6819 3.22297C15.8431 2.38327 19.1031 2.38327 22.2643 3.22297C22.3631 3.27236 22.4619 3.17358 22.5113 3.07479C22.7089 2.38327 22.7089 0.753261 22.5607 0.703867Z" fill="#0074A8"/>
<path d="M7.10041 14.9788L5.86556 16.263C5.86556 16.3124 5.81616 16.3124 5.76677 16.3124C5.71738 16.3124 5.66798 16.3124 5.66798 16.263C5.66798 16.263 4.43313 15.8679 2.45736 13.8427C0.481593 11.8176 0.0370456 10.7803 0.0370456 10.7803C-0.0123485 10.7309 -0.0123485 10.6321 0.0370456 10.5333L1.2719 9.24907C1.32129 9.19968 1.37069 9.19968 1.37069 9.19968C1.42008 9.19968 1.46948 9.19968 1.46948 9.24907C1.46948 9.24907 2.06221 10.5333 3.8404 12.3115C5.61859 14.0897 7.10041 14.7318 7.10041 14.7318C7.1992 14.8306 7.1992 14.9294 7.10041 14.9788ZM27.8954 14.9788L29.1302 16.263C29.1796 16.3124 29.1796 16.3124 29.229 16.3124C29.2784 16.3124 29.3278 16.3124 29.3278 16.263C29.3278 16.263 30.5626 15.8679 32.5384 13.8427C34.5142 11.8176 34.9587 10.7803 34.9587 10.7803C35.0081 10.7309 35.0081 10.6321 34.9587 10.5333L33.7239 9.24907C33.6745 9.19968 33.6251 9.19968 33.6251 9.19968C33.5757 9.19968 33.5263 9.19968 33.5263 9.24907C33.5263 9.24907 32.9336 10.5333 31.1554 12.3115C29.3772 14.0897 27.8954 14.7812 27.8954 14.7812C27.846 14.8306 27.846 14.9294 27.8954 14.9788ZM22.6596 0.75327C22.5608 0.703876 22.462 0.703876 22.3632 0.802664L17.7696 7.91543C17.6708 8.06361 17.6708 8.21179 17.6708 8.35997H17.325C17.3744 8.21179 17.325 8.06361 17.2262 7.91543L12.5832 0.802664C12.5338 0.703876 12.3856 0.703876 12.2868 0.75327C11.2001 1.49418 10.9038 2.97601 11.5953 4.06268L15.2011 9.64422C15.2505 9.69362 15.2998 9.74301 15.3492 9.74301H15.3986C15.448 9.74301 15.4974 9.74301 15.4974 9.69362L17.078 8.65634C17.1768 8.60695 17.2262 8.50816 17.2756 8.40937V15.6209C17.2756 15.7197 17.3744 15.8185 17.4732 15.8185C17.572 15.8185 17.6708 15.7197 17.6708 15.6209V8.40937C17.7202 8.50816 17.7696 8.60695 17.8683 8.70573L19.449 9.74301C19.4984 9.74301 19.4984 9.79241 19.5477 9.79241H19.5971C19.6465 9.79241 19.6959 9.74301 19.7453 9.69362L23.3511 4.11207C24.092 2.97601 23.7956 1.49418 22.6596 0.75327Z" fill="#00B1FF"/>
<path d="M19.3501 10.879C19.3501 11.1754 19.1031 11.4224 18.8068 11.4224C18.5104 11.4224 18.2634 11.1754 18.2634 10.879C18.2634 10.5827 18.5104 10.3357 18.8068 10.3357C19.1031 10.3357 19.3501 10.5827 19.3501 10.879ZM18.8068 12.6572C18.5104 12.6572 18.2634 12.9042 18.2634 13.2006C18.2634 13.4969 18.5104 13.7439 18.8068 13.7439C19.1031 13.7439 19.3501 13.4969 19.3501 13.2006C19.3501 12.9042 19.1031 12.6572 18.8068 12.6572ZM18.8068 14.9294C18.5104 14.9294 18.2634 15.1763 18.2634 15.4727C18.2634 15.7691 18.5104 16.016 18.8068 16.016C19.1031 16.016 19.3501 15.7691 19.3501 15.4727C19.3501 15.1763 19.1031 14.9294 18.8068 14.9294Z" fill="white"/>
</svg>
