<svg width="32" height="32" viewBox="0 0 32 32" fill="none" xmlns="http://www.w3.org/2000/svg">
<path d="M0 0H32V32H0V0Z" fill="#6FB5D3" fill-opacity="0.9"/>
<path d="M1.125 1.125V7.01719C2.89887 6.23156 4.43712 4.81706 5.58687 3.28381C5.2955 3.06719 5.02606 2.84231 4.78281 2.60944C4.30644 2.15325 3.92019 1.65688 3.68581 1.125H1.125ZM4.98462 1.125C5.13325 1.34425 5.32275 1.56894 5.56087 1.79688C6.2315 2.439 7.21744 3.07275 8.36588 3.61669C10.6626 4.70463 13.6125 5.4375 16 5.4375C18.3875 5.4375 21.3374 4.70463 23.6341 3.61669C24.7826 3.07275 25.7685 2.439 26.4391 1.79688C26.6772 1.56894 26.8668 1.34425 27.0154 1.125H4.98462ZM28.3142 1.125C28.0798 1.65688 27.6936 2.15325 27.2172 2.60938C26.9739 2.84225 26.7045 3.06713 26.4132 3.28375C27.5629 4.81706 29.1012 6.23163 30.8751 7.01719V1.125H28.3142ZM23.1546 2.17088C22.1737 3.30856 19.2768 4.08288 16 4.08313C12.7349 4.08169 9.8475 3.31169 8.86025 2.17919C10.5614 2.85344 13.2004 3.24919 16 3.25C18.8096 3.24863 21.4559 2.8495 23.1546 2.17088ZM6.54906 3.92375C5.21063 5.745 3.36031 7.40094 1.125 8.23675V19.1139C1.25725 19.1642 1.382 19.1876 1.5 19.1876C2.0195 19.1472 2.26844 18.8668 2.64525 18.5636C4.49325 17.0621 5.72369 14.4217 6.71106 11.1202C7.28525 9.20019 7.78206 7.06331 8.29481 4.82144C8.15631 4.75981 8.01919 4.69731 7.88419 4.63331C7.41469 4.411 6.96731 4.17419 6.54906 3.92394V3.92375ZM25.4509 3.92375C25.0326 4.17412 24.5853 4.41094 24.1159 4.63331C23.9808 4.69725 23.8437 4.75975 23.7052 4.82131C24.2179 7.06331 24.7147 9.20019 25.2889 11.1202C26.2763 14.4218 27.5068 17.0621 29.3547 18.5636C29.6931 18.8541 30.056 19.1817 30.5 19.1876C30.618 19.1876 30.7428 19.1642 30.875 19.1139V8.23669C28.6397 7.40088 26.7894 5.74481 25.4509 3.92381V3.92375ZM2.88313 19.8337C2.45206 20.1371 1.98706 20.3125 1.5 20.3125C1.37344 20.3125 1.24837 20.3002 1.125 20.2773V27.9772C1.51706 28.1029 2.00612 28.1875 2.5 28.1875C3.27562 28.1875 4.03981 27.979 4.43375 27.7302C4.43125 25.008 4.37294 22.2276 2.88313 19.8337ZM29.1169 19.8337C27.6271 22.2276 27.5688 25.008 27.5662 27.7302C27.9602 27.979 28.7244 28.1875 29.5 28.1875C29.9939 28.1875 30.4829 28.1029 30.875 27.9773V20.2773C30.7516 20.3002 30.6266 20.3125 30.5 20.3125C30.013 20.3125 29.548 20.1371 29.1169 19.8337ZM5.52437 25.5625C5.56187 26.3923 5.5625 27.2106 5.5625 28V28.2331L5.39769 28.3977C4.69875 29.0966 3.59375 29.3125 2.5 29.3125C2.03281 29.3125 1.56375 29.2728 1.125 29.173V30.4375H30.875V29.173C30.4363 29.2728 29.9672 29.3125 29.5 29.3125C28.4062 29.3125 27.3013 29.0966 26.6023 28.3977L26.4375 28.2331V28C26.4375 27.2106 26.4381 26.3923 26.4756 25.5625H5.52437Z" fill="white"/>
</svg>
