<svg width="12" height="12" viewBox="0 0 12 12" fill="none" xmlns="http://www.w3.org/2000/svg">
<g clip-path="url(#clip0_2098_5581)">
<path d="M0 5.96233C0.0827016 2.38135 2.96072 -0.0418062 6.05376 -0.000455435C9.64301 0.0491655 12.0579 2.9768 12.0083 6.04503C11.9504 9.57639 9.10545 12.0326 5.97933 11.9995C2.44797 11.9582 0 9.11326 0 5.96233ZM6.01241 2.34827C5.39214 2.34827 4.95383 2.86102 5.0448 3.48128C5.08615 3.77901 5.10269 4.07673 5.1275 4.38273C5.19366 5.14358 5.25155 5.89617 5.33425 6.65702C5.3756 7.02091 5.64852 7.23593 6.00414 7.23593C6.36802 7.23593 6.63267 7.02091 6.68229 6.66529C6.73191 6.31794 6.75672 5.9706 6.78153 5.61498C6.84769 4.89548 6.88904 4.18424 6.97174 3.46474C7.04618 2.86102 6.6244 2.34827 6.01241 2.34827ZM6.83942 8.81553C6.83942 8.31932 6.50035 7.98852 5.99587 7.98852C5.5162 7.98852 5.17712 8.32759 5.17712 8.80726C5.17712 9.30347 5.5162 9.65082 6.00414 9.65082C6.50035 9.65082 6.83942 9.31174 6.83942 8.81553Z" fill="#FBFBFB"/>
</g>
<defs>
<clipPath id="clip0_2098_5581">
<rect width="12.0083" height="12" fill="white"/>
</clipPath>
</defs>
</svg>
