<svg width="32" height="30" viewBox="0 0 32 30" fill="none" xmlns="http://www.w3.org/2000/svg">
<g clip-path="url(#clip0_11_934)">
<path fill-rule="evenodd" clip-rule="evenodd" d="M6.81471 15C6.81471 14.0257 6.98517 13.0915 7.28977 12.2154L1.96104 8.35498C0.922463 10.3554 0.337463 12.6096 0.337463 15C0.337463 17.3885 0.921969 19.6411 1.95881 21.6403L7.28458 17.7724C6.98294 16.9003 6.81471 15.9696 6.81471 15Z" fill="#FBBC05"/>
<path fill-rule="evenodd" clip-rule="evenodd" d="M16.1707 6.13641C18.4018 6.13641 20.4169 6.88641 22.0002 8.11359L26.6061 3.75C23.7995 1.4318 20.201 0 16.1707 0C9.91362 0 4.53597 3.39469 1.96103 8.355L7.28952 12.2154C8.51733 8.67961 12.0172 6.13641 16.1707 6.13641Z" fill="#EA4335"/>
<path fill-rule="evenodd" clip-rule="evenodd" d="M16.1707 23.8636C12.0174 23.8636 8.51757 21.3204 7.28977 17.7846L1.96103 21.6443C4.53597 26.6053 9.91362 30 16.1707 30C20.0325 30 23.7197 28.699 26.4868 26.2615L21.4288 22.5518C20.0017 23.4047 18.2044 23.8636 16.1707 23.8636Z" fill="#34A853"/>
<path fill-rule="evenodd" clip-rule="evenodd" d="M31.2842 15C31.2842 14.1136 31.1401 13.159 30.9242 12.2728H16.1707V18.0682H24.6631C24.2385 20.0442 23.0828 21.5632 21.4288 22.5518L26.4868 26.2615C29.3935 23.7021 31.2842 19.8893 31.2842 15Z" fill="#4285F4"/>
</g>
<defs>
<clipPath id="clip0_11_934">
<rect width="31.6216" height="30" fill="white"/>
</clipPath>
</defs>
</svg>
