<svg width="18" height="18" viewBox="0 0 18 18" fill="none" xmlns="http://www.w3.org/2000/svg">
<path d="M3.59719 13.5035V8.10772H2.24825C1.50324 8.10772 0.899298 8.71167 0.899298 9.45667V12.1546C0.899298 12.8996 1.50324 13.5035 2.24825 13.5035H3.59719ZM10.7148 16.2014H12.6428C13.2234 16.2014 13.7389 15.8299 13.9225 15.279L14.1275 14.6641C14.1579 14.5729 14.1955 14.4856 14.2396 14.4028H13.9391C13.6908 14.4028 13.4895 14.2015 13.4895 13.9532V7.65807C13.4895 7.40974 13.6908 7.20842 13.9391 7.20842H14.3888V6.29509C14.3888 3.31507 11.973 0.899298 8.99298 0.899298C6.01297 0.899298 3.59719 3.31507 3.59719 6.29509V7.20842H4.04684C4.29518 7.20842 4.49649 7.40974 4.49649 7.65807V13.9532C4.49649 14.2015 4.29518 14.4028 4.04684 14.4028H2.24825C1.00657 14.4028 0 13.3962 0 12.1546V9.45667C0 8.215 1.00657 7.20842 2.24825 7.20842H2.69789V6.29509C2.69789 2.81841 5.5163 0 8.99298 0C12.4697 0 15.2881 2.81841 15.2881 6.29509V7.20842H15.7377C16.9794 7.20842 17.986 8.215 17.986 9.45667V12.1546C17.986 13.3962 16.9794 14.4028 15.7377 14.4028C15.3942 14.4028 15.0892 14.6226 14.9806 14.9485L14.7756 15.5634C14.4696 16.4815 13.6105 17.1007 12.6428 17.1007H10.7148C10.5296 17.6246 10.03 18 9.44263 18H8.54333C7.79833 18 7.19438 17.3961 7.19438 16.6511C7.19438 15.9061 7.79833 15.3021 8.54333 15.3021H9.44263C10.03 15.3021 10.5296 15.6775 10.7148 16.2014ZM14.3888 8.10772V13.5035H15.7377C16.4827 13.5035 17.0867 12.8996 17.0867 12.1546V9.45667C17.0867 8.71167 16.4827 8.10772 15.7377 8.10772H14.3888ZM8.09368 16.6511C8.09368 16.8994 8.295 17.1007 8.54333 17.1007H9.44263C9.69096 17.1007 9.89228 16.8994 9.89228 16.6511C9.89228 16.4027 9.69096 16.2014 9.44263 16.2014H8.54333C8.295 16.2014 8.09368 16.4027 8.09368 16.6511Z" fill="#04ABFF"/>
</svg>
