<svg width="27" height="27" viewBox="0 0 27 27" fill="none" xmlns="http://www.w3.org/2000/svg">
<path d="M26.4493 12.8787C26.3092 13.0364 26.1375 13.163 25.9453 13.2501C25.7531 13.3372 25.5448 13.383 25.3338 13.3844C24.972 13.3852 24.6226 13.2529 24.3521 13.0125L23.8464 12.5782V23.7959C23.8441 24.5841 23.5299 25.3394 22.9726 25.8967C22.4152 26.4541 21.6599 26.7683 20.8717 26.7706H17.1533C16.9561 26.7706 16.7669 26.6923 16.6275 26.5528C16.488 26.4133 16.4096 26.2242 16.4096 26.0269V17.8464C16.4096 17.452 16.2529 17.0737 15.974 16.7947C15.6951 16.5158 15.3167 16.3591 14.9223 16.3591H11.9476C11.5531 16.3591 11.1748 16.5158 10.8958 16.7947C10.6169 17.0737 10.4602 17.452 10.4602 17.8464V26.0269C10.4602 26.2242 10.3818 26.4133 10.2424 26.5528C10.1029 26.6923 9.91375 26.7706 9.71651 26.7706H5.99811C5.20989 26.7683 4.45463 26.4541 3.89727 25.8967C3.33991 25.3394 3.02575 24.5841 3.02339 23.7959V19.3338C3.00852 17.2366 3.00852 14.485 3.02339 12.5961L2.51769 13.0125C2.37288 13.1516 2.20142 13.2599 2.01363 13.331C1.82583 13.402 1.6256 13.4343 1.425 13.4259C1.22439 13.4175 1.02757 13.3685 0.846387 13.282C0.665207 13.1955 0.503421 13.0732 0.370779 12.9224C0.238137 12.7717 0.137386 12.5957 0.074598 12.405C0.0118098 12.2142 -0.0117159 12.0128 0.00543898 11.8128C0.0225938 11.6127 0.0800739 11.4182 0.174415 11.241C0.268756 11.0637 0.398006 10.9074 0.554373 10.7815L12.4533 0.369958C12.7247 0.131505 13.0736 0 13.4349 0C13.7962 0 14.1451 0.131505 14.4166 0.369958L18.1052 3.59753C18.2624 3.40912 18.4575 3.25607 18.678 3.14841C18.8984 3.04075 19.1392 2.98092 19.3844 2.97284H20.8717C21.2542 3.00832 21.6122 3.17643 21.8839 3.44805C22.1555 3.71967 22.3236 4.07771 22.3591 4.4602V7.43492L26.3155 10.7815C26.611 11.042 26.791 11.4092 26.8161 11.8024C26.8412 12.1956 26.7093 12.5826 26.4493 12.8787Z" fill="#04ABFF"/>
</svg>
