<svg width="37" height="33" viewBox="0 0 37 33" fill="none" xmlns="http://www.w3.org/2000/svg">
<path d="M1.79248 28.4302H4.90235V32.4818H1.79248V28.4302Z" fill="#A57939"/>
<path d="M27.5955 28.4302H30.7053V32.4818H27.5955V28.4302Z" fill="#A57939"/>
<path d="M5.06567 12.8693H27.4003L27.5397 28.2523L5.19358 28.1331L5.06567 12.8693Z" fill="#92D3F5"/>
<path d="M5.11157 23.1189H27.538V28.2534H5.11157V23.1189Z" fill="#61B2E4"/>
<path d="M31.0999 16.3737V28.2408L27.5369 28.2491L27.6364 16.3706L31.0999 16.3737Z" fill="#61B2E4"/>
<path d="M5.03025 17.1332L5.11084 28.2547L1.0001 28.2463V15.995L5.03025 17.1332Z" fill="#61B2E4"/>
<path d="M28.123 29.5945V32.3533H30.0904V29.5945" fill="#A57939"/>
<path d="M2.14282 29.5715V32.3533H4.10786V29.5715" fill="#A57939"/>
<path d="M17.6382 2.00536V6.86059C17.6382 6.86059 21.2396 8.82333 24.8422 6.86059V2.00536C24.8422 2.00536 21.2407 -0.163864 17.6382 2.00536Z" fill="#FCEA2B"/>
<path d="M5.10574 17.6758V12.8665H27.4404V17.6121C28.6666 15.9448 29.3825 15.9924 31.3223 15.9924V28.2437H1.22729V15.9924C3.28869 15.7004 3.67355 16.3443 5.10918 17.6758H5.10574Z" stroke="black" stroke-opacity="0.8" stroke-width="1.14713" stroke-miterlimit="10" stroke-linecap="round" stroke-linejoin="round"/>
<path d="M2.36572 30.1451V32.3545H4.32846V30.1451" stroke="black" stroke-opacity="0.8" stroke-width="1.14713" stroke-miterlimit="10" stroke-linecap="round" stroke-linejoin="round"/>
<path d="M28.1687 30.1451V32.3545H30.1314V30.1451" stroke="black" stroke-opacity="0.8" stroke-width="1.14713" stroke-miterlimit="10" stroke-linecap="round" stroke-linejoin="round"/>
<path d="M17.6782 2.00542V6.86064C20.1916 8.07373 22.5874 8.07947 24.8822 6.86064V2.00542C22.569 0.691954 20.1807 0.638039 17.6782 2.00542Z" stroke="black" stroke-opacity="0.8" stroke-width="1.14713" stroke-miterlimit="10" stroke-linecap="round" stroke-linejoin="round"/>
<path d="M5.15723 23.1533H27.446" stroke="black" stroke-opacity="0.8" stroke-width="1.14713" stroke-miterlimit="10" stroke-linecap="round" stroke-linejoin="round"/>
<path d="M27.4462 27.8451L27.4397 17.6127" stroke="black" stroke-opacity="0.8" stroke-width="1.14713" stroke-miterlimit="10" stroke-linecap="round" stroke-linejoin="round"/>
<path d="M5.10571 17.6758L5.11199 28.2523" stroke="black" stroke-opacity="0.8" stroke-width="1.14713" stroke-miterlimit="10" stroke-linecap="round" stroke-linejoin="round"/>
<path d="M24.8823 4.38626C24.8823 4.38626 33.589 2.75332 33.807 15.7084C33.8635 19.0672 33.807 29.1471 33.807 29.1471" stroke="black" stroke-opacity="0.8" stroke-width="1.14713" stroke-miterlimit="10" stroke-linecap="round" stroke-linejoin="round"/>
<path d="M31.6675 30.7186H35.9956" stroke="black" stroke-opacity="0.8" stroke-width="1.14713" stroke-miterlimit="10" stroke-linecap="round" stroke-linejoin="round"/>
</svg>
