<svg width="27" height="8" viewBox="0 0 27 8" fill="none" xmlns="http://www.w3.org/2000/svg">
<path d="M17.2409 3.83131C17.2409 4.58907 17.0162 5.32981 16.5952 5.95987C16.1742 6.58993 15.5758 7.08099 14.8758 7.37098C14.1757 7.66096 13.4053 7.73683 12.6621 7.589C11.9189 7.44117 11.2363 7.07627 10.7004 6.54045C10.1646 6.00463 9.79972 5.32196 9.65189 4.57876C9.50406 3.83556 9.57993 3.06521 9.86992 2.36513C10.1599 1.66505 10.651 1.06668 11.281 0.645692C11.9111 0.224703 12.6518 0 13.4096 0C14.4254 0.0010029 15.3993 0.40498 16.1176 1.12327C16.8359 1.84156 17.2399 2.81549 17.2409 3.83131ZM3.83131 0C3.07355 0 2.33281 0.224703 1.70275 0.645692C1.07269 1.06668 0.581626 1.66505 0.291643 2.36513C0.00166003 3.06521 -0.0742127 3.83556 0.0736193 4.57876C0.221451 5.32196 0.586348 6.00463 1.12217 6.54045C1.65798 7.07627 2.34066 7.44117 3.08386 7.589C3.82706 7.73683 4.59741 7.66096 5.29749 7.37098C5.99757 7.08099 6.59594 6.58993 7.01693 5.95987C7.43792 5.32981 7.66262 4.58907 7.66262 3.83131C7.66162 2.81549 7.25764 1.84156 6.53935 1.12327C5.82106 0.40498 4.84713 0.0010029 3.83131 0ZM22.9879 0C22.2301 0 21.4894 0.224703 20.8593 0.645692C20.2292 1.06668 19.7382 1.66505 19.4482 2.36513C19.1582 3.06521 19.0823 3.83556 19.2302 4.57876C19.378 5.32196 19.7429 6.00463 20.2787 6.54045C20.8145 7.07627 21.4972 7.44117 22.2404 7.589C22.9836 7.73683 23.754 7.66096 24.454 7.37098C25.1541 7.08099 25.7525 6.58993 26.1735 5.95987C26.5945 5.32981 26.8192 4.58907 26.8192 3.83131C26.8182 2.81549 26.4142 1.84156 25.6959 1.12327C24.9776 0.40498 24.0037 0.0010029 22.9879 0Z" fill="#9B9696"/>
</svg>
