<svg width="23" height="25" viewBox="0 0 23 25" fill="none" xmlns="http://www.w3.org/2000/svg">
<path d="M6.05001 3.52501H3.52501C2.85533 3.52501 2.21309 3.79103 1.73956 4.26456C1.26603 4.73809 1 5.38034 1 6.05001V21.2C1 21.8697 1.26603 22.512 1.73956 22.9855C2.21309 23.459 2.85533 23.7251 3.52501 23.7251H18.675C19.3447 23.7251 19.987 23.459 20.4605 22.9855C20.934 22.512 21.2 21.8697 21.2 21.2V6.05001C21.2 5.38034 20.934 4.73809 20.4605 4.26456C19.987 3.79103 19.3447 3.52501 18.675 3.52501H16.15M6.05001 3.52501C6.05001 2.85533 6.31604 2.21309 6.78957 1.73956C7.2631 1.26603 7.90534 1 8.57502 1H13.625C14.2947 1 14.9369 1.26603 15.4105 1.73956C15.884 2.21309 16.15 2.85533 16.15 3.52501M6.05001 3.52501C6.05001 4.19468 6.31604 4.83692 6.78957 5.31045C7.2631 5.78399 7.90534 6.05001 8.57502 6.05001H13.625C14.2947 6.05001 14.9369 5.78399 15.4105 5.31045C15.884 4.83692 16.15 4.19468 16.15 3.52501M6.05001 11.1H16.15M6.05001 16.15H11.1" stroke="#9B9696" stroke-width="2" stroke-linecap="round" stroke-linejoin="round"/>
</svg>
