<svg width="15" height="15" viewBox="0 0 15 15" fill="none" xmlns="http://www.w3.org/2000/svg">
<path fill-rule="evenodd" clip-rule="evenodd" d="M6.75 0C10.4779 0 13.5 3.02208 13.5 6.75C13.5 8.34358 12.9478 9.80819 12.0242 10.9629L14.7803 13.7197C15.0732 14.0126 15.0732 14.4874 14.7803 14.7803C14.51 15.0507 14.0845 15.0715 13.7903 14.8427L13.7197 14.7803L10.9629 12.0242C9.80819 12.9478 8.34358 13.5 6.75 13.5C3.02208 13.5 0 10.4779 0 6.75C0 3.02208 3.02208 0 6.75 0ZM6.75 1.5C3.85051 1.5 1.5 3.85051 1.5 6.75C1.5 9.6495 3.85051 12 6.75 12C9.6495 12 12 9.6495 12 6.75C12 3.85051 9.6495 1.5 6.75 1.5Z" fill="white"/>
</svg>
