<svg width="8" height="8" viewBox="0 0 8 8" fill="none" xmlns="http://www.w3.org/2000/svg">
<path d="M4.27012 0.167426L5.1675 2.2142C5.23617 2.37088 5.38485 2.47822 5.55552 2.49355L7.74164 2.68956C7.98898 2.72556 8.08766 3.02891 7.90831 3.20359L6.26156 4.58699C6.12822 4.699 6.06755 4.87501 6.10422 5.04502L6.58291 7.2858C6.62491 7.53182 6.3669 7.71983 6.14555 7.60316L4.23745 6.48576C4.09078 6.39976 3.90943 6.39976 3.76276 6.48576L1.85466 7.60249C1.63398 7.71849 1.3753 7.53115 1.4173 7.28514L1.89599 5.04435C1.932 4.87434 1.87199 4.69833 1.73865 4.58633L0.0912305 3.20425C-0.0874457 3.03024 0.0112262 2.72623 0.257906 2.69023L2.44402 2.49422C2.6147 2.47888 2.76337 2.37154 2.83204 2.21487L3.72942 0.168092C3.84076 -0.0559196 4.15945 -0.0559195 4.27012 0.167426Z" fill="#FDD835"/>
<path d="M4.20472 2.33692L4.05271 0.828842C4.04671 0.744838 4.02937 0.60083 4.16405 0.60083C4.27072 0.60083 4.32872 0.822842 4.32872 0.822842L4.78475 2.03357C4.95676 2.49426 4.88609 2.65227 4.72008 2.74561C4.5294 2.85228 4.24805 2.76895 4.20472 2.33692Z" fill="#FFFF8D"/>
<path d="M6.08561 4.45294L7.39368 3.43222C7.45835 3.37821 7.57503 3.29221 7.48169 3.1942C7.40768 3.11687 7.20767 3.22821 7.20767 3.22821L6.06294 3.67556C5.72159 3.79357 5.49491 3.96825 5.47491 4.18826C5.44891 4.48161 5.71226 4.70762 6.08561 4.45294Z" fill="#F4B400"/>
</svg>
